<mxfile host="app.diagrams.net" modified="2021-08-07T03:42:21.929Z" agent="5.0 (Windows NT 10.0; Win64; x64) AppleWebKit/537.36 (KHTML, like Gecko) Chrome/92.0.4515.131 Safari/537.36" etag="ZmZzvAy4FRTwDj6Wf0Oo" version="14.1.9" type="github">
  <diagram id="Jk72_HG5pjLHHDRiFCYW" name="Page-1">
    <mxGraphModel dx="1002" dy="714" grid="1" gridSize="10" guides="1" tooltips="1" connect="1" arrows="1" fold="1" page="1" pageScale="1" pageWidth="850" pageHeight="1100" math="0" shadow="0">
      <root>
        <mxCell id="0" />
        <mxCell id="1" parent="0" />
        <mxCell id="T4-7ruvVYxP1_Qu3IUcN-4" value="" style="edgeStyle=orthogonalEdgeStyle;rounded=0;orthogonalLoop=1;jettySize=auto;html=1;" parent="1" source="T4-7ruvVYxP1_Qu3IUcN-1" target="T4-7ruvVYxP1_Qu3IUcN-3" edge="1">
          <mxGeometry relative="1" as="geometry" />
        </mxCell>
        <mxCell id="T4-7ruvVYxP1_Qu3IUcN-11" value="" style="edgeStyle=orthogonalEdgeStyle;rounded=0;orthogonalLoop=1;jettySize=auto;html=1;startArrow=none;startFill=0;" parent="1" source="T4-7ruvVYxP1_Qu3IUcN-1" target="T4-7ruvVYxP1_Qu3IUcN-10" edge="1">
          <mxGeometry relative="1" as="geometry" />
        </mxCell>
        <mxCell id="NwxePvADw25R5ZQRZbuX-2" value="" style="edgeStyle=orthogonalEdgeStyle;orthogonalLoop=1;jettySize=auto;html=1;exitX=0.183;exitY=1;exitDx=0;exitDy=0;curved=1;exitPerimeter=0;" parent="1" source="T4-7ruvVYxP1_Qu3IUcN-1" target="NwxePvADw25R5ZQRZbuX-1" edge="1">
          <mxGeometry relative="1" as="geometry" />
        </mxCell>
        <mxCell id="T4-7ruvVYxP1_Qu3IUcN-1" value="Visual Studio Code" style="rounded=0;whiteSpace=wrap;html=1;fillColor=#dae8fc;strokeColor=#6c8ebf;" parent="1" vertex="1">
          <mxGeometry x="320" y="80" width="120" height="60" as="geometry" />
        </mxCell>
        <mxCell id="T4-7ruvVYxP1_Qu3IUcN-8" value="git pull / push" style="edgeStyle=orthogonalEdgeStyle;rounded=0;orthogonalLoop=1;jettySize=auto;html=1;exitX=0.875;exitY=0.5;exitDx=0;exitDy=0;exitPerimeter=0;startArrow=classic;startFill=1;labelBorderColor=#000000;" parent="1" source="T4-7ruvVYxP1_Qu3IUcN-2" target="T4-7ruvVYxP1_Qu3IUcN-1" edge="1">
          <mxGeometry relative="1" as="geometry" />
        </mxCell>
        <mxCell id="T4-7ruvVYxP1_Qu3IUcN-2" value="github.com" style="ellipse;shape=cloud;whiteSpace=wrap;html=1;fillColor=#ffe6cc;strokeColor=#d79b00;" parent="1" vertex="1">
          <mxGeometry x="80" y="70" width="120" height="80" as="geometry" />
        </mxCell>
        <mxCell id="T4-7ruvVYxP1_Qu3IUcN-6" value="rbxlx file" style="edgeStyle=orthogonalEdgeStyle;rounded=0;orthogonalLoop=1;jettySize=auto;html=1;labelBorderColor=#000000;entryX=0.5;entryY=0;entryDx=0;entryDy=0;entryPerimeter=0;" parent="1" source="T4-7ruvVYxP1_Qu3IUcN-3" target="T4-7ruvVYxP1_Qu3IUcN-7" edge="1">
          <mxGeometry relative="1" as="geometry" />
        </mxCell>
        <mxCell id="T4-7ruvVYxP1_Qu3IUcN-3" value="&lt;b&gt;Rojo&lt;/b&gt;&lt;br&gt;build project.json" style="rounded=0;whiteSpace=wrap;html=1;fillColor=#f8cecc;strokeColor=#b85450;" parent="1" vertex="1">
          <mxGeometry x="570" y="80" width="120" height="60" as="geometry" />
        </mxCell>
        <mxCell id="T4-7ruvVYxP1_Qu3IUcN-5" value="Roblox Studio" style="rounded=0;whiteSpace=wrap;html=1;fillColor=#dae8fc;strokeColor=#6c8ebf;" parent="1" vertex="1">
          <mxGeometry x="450" y="400" width="120" height="60" as="geometry" />
        </mxCell>
        <mxCell id="T4-7ruvVYxP1_Qu3IUcN-12" value="rbxlx file" style="edgeStyle=orthogonalEdgeStyle;rounded=0;orthogonalLoop=1;jettySize=auto;html=1;startArrow=none;startFill=0;labelBorderColor=#000000;exitX=0.5;exitY=1;exitDx=0;exitDy=0;exitPerimeter=0;entryX=1;entryY=0.5;entryDx=0;entryDy=0;" parent="1" source="T4-7ruvVYxP1_Qu3IUcN-7" target="T4-7ruvVYxP1_Qu3IUcN-5" edge="1">
          <mxGeometry x="-0.4667" relative="1" as="geometry">
            <mxPoint as="offset" />
          </mxGeometry>
        </mxCell>
        <mxCell id="T4-7ruvVYxP1_Qu3IUcN-7" value="local&lt;br&gt;project&lt;br&gt;folder" style="shape=cylinder3;whiteSpace=wrap;html=1;boundedLbl=1;backgroundOutline=1;size=15;fillColor=#d5e8d4;strokeColor=#82b366;" parent="1" vertex="1">
          <mxGeometry x="600" y="230" width="60" height="80" as="geometry" />
        </mxCell>
        <mxCell id="T4-7ruvVYxP1_Qu3IUcN-14" value="file changes" style="edgeStyle=orthogonalEdgeStyle;rounded=0;orthogonalLoop=1;jettySize=auto;html=1;startArrow=none;startFill=0;entryX=0;entryY=0.5;entryDx=0;entryDy=0;exitX=0.5;exitY=1;exitDx=0;exitDy=0;labelBorderColor=#000000;" parent="1" source="T4-7ruvVYxP1_Qu3IUcN-10" target="T4-7ruvVYxP1_Qu3IUcN-5" edge="1">
          <mxGeometry x="-0.4118" relative="1" as="geometry">
            <mxPoint x="520" y="270" as="targetPoint" />
            <mxPoint as="offset" />
          </mxGeometry>
        </mxCell>
        <mxCell id="T4-7ruvVYxP1_Qu3IUcN-15" value="monitor&lt;br&gt;&amp;nbsp;file changes" style="edgeStyle=orthogonalEdgeStyle;rounded=0;orthogonalLoop=1;jettySize=auto;html=1;startArrow=none;startFill=0;labelBorderColor=#000000;dashed=1;" parent="1" source="T4-7ruvVYxP1_Qu3IUcN-10" target="T4-7ruvVYxP1_Qu3IUcN-7" edge="1">
          <mxGeometry relative="1" as="geometry" />
        </mxCell>
        <mxCell id="T4-7ruvVYxP1_Qu3IUcN-10" value="&lt;b&gt;Rojo&lt;/b&gt;&lt;br&gt;sync" style="rounded=0;whiteSpace=wrap;html=1;fillColor=#f8cecc;strokeColor=#b85450;" parent="1" vertex="1">
          <mxGeometry x="320" y="240" width="120" height="60" as="geometry" />
        </mxCell>
        <mxCell id="PCtJZz9f-YVj9QSsITRu-1" style="edgeStyle=orthogonalEdgeStyle;rounded=0;orthogonalLoop=1;jettySize=auto;html=1;exitX=0.5;exitY=1;exitDx=0;exitDy=0;entryX=1;entryY=0.5;entryDx=0;entryDy=0;entryPerimeter=0;" edge="1" parent="1" source="NwxePvADw25R5ZQRZbuX-1" target="T4-7ruvVYxP1_Qu3IUcN-7">
          <mxGeometry relative="1" as="geometry">
            <Array as="points">
              <mxPoint x="150" y="530" />
              <mxPoint x="680" y="530" />
              <mxPoint x="680" y="270" />
            </Array>
          </mxGeometry>
        </mxCell>
        <mxCell id="NwxePvADw25R5ZQRZbuX-1" value="Lua" style="rounded=0;whiteSpace=wrap;html=1;fillColor=#dae8fc;strokeColor=#6c8ebf;" parent="1" vertex="1">
          <mxGeometry x="90" y="240" width="120" height="60" as="geometry" />
        </mxCell>
      </root>
    </mxGraphModel>
  </diagram>
</mxfile>
